<svg viewBox="0 0 225 32" fill="none" xmlns="http://www.w3.org/2000/svg">
  <g clip-path="url(#clip0_8510_13797)">
    <path d="M17.5433 0L15.5508 3.59689L27.0143 27.0155C27.6094 28.2317 27.7129 30.0431 26.7555 31.5957H33.2247L17.5433 0Z" fill="#009C8B"></path>
    <path d="M24.5835 27.1185L14.2328 6.05469L12.1367 9.8586L20.5726 27.0668C21.1936 28.3089 21.1419 29.9391 20.495 31.1812L20.288 31.5694H24.273C24.273 31.5694 24.6612 30.793 24.7388 30.586C25.1269 29.4733 25.0752 28.1795 24.5835 27.1185Z" fill="#009C8B"></path>
    <path d="M18.3209 27.9217L10.6872 12.3438L10.1438 13.3271C9.16044 15.0867 9.10868 17.2086 9.9885 19.02L13.8959 26.9901C14.3099 27.844 13.6889 28.8274 12.7573 28.8274H4.3732C3.38988 28.8274 2.71708 27.9475 2.87234 27.0677V26.9901C2.87234 26.809 2.87234 26.6019 2.76883 26.6019L1.52674 28.8532L0 31.5962H16.0437C17.9068 31.5962 19.1489 29.6295 18.3209 27.9475V27.9217Z" fill="#009C8B"></path>
    <path d="M62.5188 26.3455L54.9886 3.91016H51.2882L44.7931 23.8872C43.1629 28.9332 41.248 30.5117 40.1094 31.0033V31.6244H48.6229V31.0033C44.8707 29.3731 44.5861 27.7169 45.5694 24.6893L46.5527 21.6359H56.1272L57.9903 27.2512C58.8443 29.9165 58.3526 30.7187 55.4544 31.0033V31.6244H66.2451V31.0033C64.7183 30.8481 63.6574 29.7612 62.5447 26.3455H62.5188ZM46.8633 20.6784L51.2882 7.01539L55.8167 20.6784H46.8633Z" fill="white"></path>
    <path d="M74.1381 27.9484V3.88281H66.9961V4.42623C68.9627 4.63324 69.6097 5.87534 69.6097 7.55734V27.9225C69.6097 29.6045 68.9369 30.8466 66.9961 31.0536V31.597H76.7776V31.0536C74.8109 30.8466 74.164 29.6045 74.164 27.9225L74.1381 27.9484Z" fill="white"></path>
    <path d="M148.895 27.947V17.4927C148.895 15.6296 148.248 13.8182 146.54 12.9125C144.703 11.9292 141.856 11.7739 139.89 12.4209C139.243 12.6279 138.647 13.016 138.156 13.5077C137.923 13.7406 136.965 14.8274 137.095 15.1638C135.956 12.2397 132.256 11.8516 129.539 12.2138C128.788 12.3173 128.038 12.5502 127.391 12.9384C126.977 13.1972 126.071 13.7923 126.071 14.3616V12.4985H118.852V13.0419C120.844 13.2489 121.543 14.491 121.543 16.173V27.9729C121.543 29.6549 120.844 30.897 118.852 31.104V31.6474H128.788V31.104C126.796 30.897 126.097 29.6549 126.097 27.9729V18.2949C126.097 14.4393 127.727 13.016 129.772 13.016C131.816 13.016 132.98 14.2581 132.98 17.5704V27.947C132.98 29.629 132.282 30.8711 130.289 31.0781V31.6215H140.226V31.0781C138.233 30.8711 137.535 29.629 137.535 27.947V18.269C137.535 14.4134 139.165 12.9901 141.209 12.9901C143.254 12.9901 144.418 14.2322 144.418 17.5445V27.9211C144.418 29.6031 143.719 30.8452 141.727 31.0522V31.5957H151.664V31.0522C149.671 30.8452 148.972 29.6031 148.972 27.9211L148.895 27.947Z" fill="white"></path>
    <path d="M186.339 12.3203H183.674C181.397 12.3203 179.844 13.2519 178.938 14.701V12.3203H171.719V12.8637C173.711 13.0707 174.41 14.3128 174.41 15.9948V27.7947C174.41 29.4767 173.711 30.7188 171.719 30.9258V31.4692H182.432V30.9258C179.456 30.7188 178.964 29.4767 178.964 27.7947V18.4273C178.964 15.0633 180.362 13.9506 181.707 13.9506C183.622 13.9506 185.02 16.0983 185.77 17.4698H186.365V12.3462L186.339 12.3203Z" fill="white"></path>
    <path d="M193.404 27.7662V3.72656H186.262V4.26998C188.228 4.47699 188.875 5.71909 188.875 7.40109V27.7662C188.875 29.4482 188.202 30.6903 186.262 30.8973V31.4408H196.043V30.8973C194.077 30.6903 193.43 29.4482 193.43 27.7662H193.404Z" fill="white"></path>
    <path d="M168.173 27.8723V17.2887C168.173 13.0966 163.334 12.1133 160.436 12.1133C157.538 12.1133 154.484 13.5365 153.19 14.5716V19.8246H153.941C153.941 19.8246 156.606 12.9155 160.436 12.9155C164.266 12.9155 163.722 14.3128 163.722 16.59C163.722 18.8672 163.282 19.7729 160.177 20.9373L156.296 22.3864C153.863 23.2921 152.414 24.6377 152.414 27.1995C152.414 29.7614 153.967 31.9609 158.314 31.9609H159.634C161.549 31.9609 162.868 30.9776 163.696 29.6061V31.5986H170.838V31.0552C168.846 30.8482 168.147 29.6061 168.147 27.9241L168.173 27.8723ZM163.722 25.8281C163.722 29.2956 162.196 31.0293 159.66 31.0293C157.124 31.0293 156.839 30.0201 156.839 26.5267C156.839 23.0333 157.822 22.6711 160.048 21.7913C162.092 21.0149 163.127 20.4974 163.722 20.0057V25.8281Z" fill="white"></path>
    <path d="M90.7231 12.2152C88.1096 12.2152 86.1429 13.1209 84.8491 14.9581V3.88281H77.707V4.42623C79.6737 4.63324 80.3206 5.87534 80.3206 7.55734V27.9225C80.3206 29.6045 79.6478 30.8466 77.707 31.0536V31.597H84.8491V29.1128C86.1429 30.976 88.1096 31.9334 90.7231 31.9334C95.6656 31.9334 99.1849 28.8799 99.1849 22.2296C99.1849 15.5792 95.6656 12.1634 90.7231 12.1634V12.2152ZM89.4034 31.1054C87.4109 31.1054 85.6771 29.501 84.8491 26.4734V17.5976C85.6771 14.57 87.4109 13.0691 89.4034 13.0691C91.3959 13.0691 94.1906 15.6568 94.1906 22.2554C94.1906 28.8541 92.1981 31.1054 89.4034 31.1054Z" fill="white"></path>
    <path d="M105.707 20.8055H118.594C118.464 15.9924 115.54 12.1367 110.572 12.1367H109.408C104.051 12.1367 100.816 16.5876 100.816 22.0476C100.816 27.5076 100.868 23.4449 100.998 24.1177C101.437 26.7313 102.835 29.2155 105.112 30.6387C107.622 32.2172 111.4 32.6054 114.091 31.2857C115.411 30.6387 116.446 29.5519 117.248 28.3098C117.662 27.6888 117.999 27.016 118.309 26.3432C118.309 26.3432 118.309 26.2914 118.335 26.2655L117.533 25.8256C116.808 27.43 115.773 28.9309 114.298 29.9142C112.125 31.3892 108.554 31.6997 106.949 29.2414C105.604 27.1971 105.707 24.2212 105.707 21.8923V20.8314V20.8055ZM110.003 12.913C112.383 12.913 113.522 14.6985 113.781 19.9516H105.733C106.044 14.2586 107.726 12.913 110.003 12.913Z" fill="white"></path>
    <path d="M209.939 29.8883C207.765 31.3633 204.194 31.6738 202.59 29.2155C201.244 27.1712 201.348 24.1954 201.348 21.8664V20.8055H214.234C214.105 15.9924 211.181 12.1367 206.213 12.1367H205.048C199.692 12.1367 196.457 16.5876 196.457 22.0476C196.457 27.5076 196.509 23.4449 196.638 24.1177C197.078 26.7313 198.475 29.2155 200.753 30.6387C203.263 32.2172 207.041 32.6054 209.732 31.2857C211.052 30.6387 212.087 29.5519 212.889 28.3098C213.303 27.6888 213.639 27.016 213.95 26.3432C213.95 26.3432 213.95 26.2914 213.976 26.2655L213.174 25.8256C212.449 27.43 211.414 28.9309 209.939 29.9142V29.8883ZM205.669 12.913C208.05 12.913 209.188 14.6985 209.447 19.9516H201.4C201.71 14.2586 203.392 12.913 205.669 12.913Z" fill="white"></path>
    <path d="M216.305 7.76579C216.305 5.35923 218.297 3.49609 220.704 3.49609C223.11 3.49609 224.999 5.35923 224.999 7.76579C224.999 10.1723 223.007 12.0096 220.626 12.0096C218.245 12.0096 216.305 10.1723 216.305 7.76579ZM216.822 7.76579C216.822 9.91357 218.504 11.5697 220.652 11.5697C222.8 11.5697 224.482 9.93945 224.482 7.76579C224.482 5.59213 222.8 3.936 220.652 3.936C218.504 3.936 216.822 5.59213 216.822 7.76579ZM218.892 10.0171C219.074 9.62893 219.151 9.44779 219.151 8.8785V6.60133C219.151 6.10966 219.099 5.90265 218.892 5.51449V5.46274H220.911C221.998 5.46274 222.463 5.90265 222.463 6.57545C222.463 7.24825 222.179 7.55877 221.532 7.79167L222.308 9.18902C222.567 9.70656 222.696 9.86182 223.059 10.0171H221.687L220.6 7.89517H220.083V8.8785C220.083 9.44779 220.083 9.62893 220.341 10.0171H218.892ZM220.756 5.72151H220.497C220.393 5.72151 220.238 5.72151 220.083 5.74739V7.6364H220.756C221.402 7.6364 221.532 7.11887 221.532 6.6272C221.532 6.13554 221.351 5.72151 220.756 5.72151Z" fill="white"></path>
  </g>
  <defs>
    <clipPath id="clip0_8510_13797">
      <rect width="225" height="32" fill="white"></rect>
    </clipPath>
  </defs>
</svg>
